<?xml version="1.0" standalone="no"?>
<!DOCTYPE svg PUBLIC "-//W3C//DTD SVG 20010904//EN"
 "http://www.w3.org/TR/2001/REC-SVG-20010904/DTD/svg10.dtd">
<svg version="1.0" xmlns="http://www.w3.org/2000/svg"
 width="408.000000pt" height="408.000000pt" viewBox="0 0 408.000000 408.000000"
 preserveAspectRatio="xMidYMid meet">

<g transform="translate(0.000000,408.000000) scale(0.100000,-0.100000)"
fill="#000000" stroke="none">
<path d="M615 4074 c-11 -2 -45 -9 -75 -15 -30 -6 -98 -31 -150 -56 -172 -83
-307 -245 -368 -443 -15 -50 -17 -176 -19 -1480 -4 -1530 -5 -1496 47 -1632
29 -78 106 -193 167 -250 92 -85 192 -140 319 -174 66 -18 134 -19 1504 -19
l1435 0 78 23 c255 73 426 244 499 499 l23 78 0 1435 c0 1615 6 1491 -77 1660
-60 121 -178 240 -298 298 -170 83 -29 77 -1635 78 -786 1 -1439 0 -1450 -2z
m1255 -1099 l0 -755 -760 0 -761 0 3 628 c3 619 3 628 25 674 25 54 90 128
140 159 76 47 82 48 736 48 l617 1 0 -755z m1668 716 c75 -41 125 -94 161
-170 l26 -56 3 -622 3 -623 -761 0 -760 0 0 755 0 756 633 -3 632 -3 63 -34z
m-1673 -2581 l0 -755 -625 0 -625 0 -56 26 c-76 36 -129 86 -170 161 l-34 63
-3 633 -3 632 758 -2 758 -3 0 -755z m1865 157 c0 -670 0 -665 -66 -764 -20
-28 -59 -67 -87 -87 -99 -66 -94 -66 -764 -66 l-603 0 0 760 0 760 760 0 760
0 0 -603z"/>
<path d="M595 3086 c-109 -49 -135 -195 -50 -280 54 -54 87 -57 571 -54 398 3
432 4 467 22 70 35 111 128 87 201 -16 47 -57 95 -97 111 -47 20 -934 20 -978
0z"/>
<path d="M2563 3385 c-68 -41 -101 -136 -72 -212 5 -15 53 -72 106 -125 l97
-97 -96 -99 c-104 -107 -124 -145 -115 -219 11 -103 120 -173 220 -143 31 9
68 38 142 111 l101 99 89 -91 c128 -129 186 -152 275 -107 78 40 114 121 90
201 -9 31 -38 68 -111 142 l-99 101 91 89 c102 101 129 145 129 207 -1 117
-125 199 -237 157 -15 -5 -72 -53 -125 -106 l-97 -96 -96 89 c-52 49 -110 97
-128 106 -47 26 -114 23 -164 -7z"/>
<path d="M1032 1749 c-76 -38 -86 -63 -92 -229 l-5 -145 -160 -5 c-198 -6
-231 -20 -270 -113 -20 -49 -19 -82 6 -133 37 -77 68 -88 259 -94 l165 -5 5
-147 c6 -162 11 -179 81 -226 45 -32 138 -28 187 7 59 42 72 83 72 231 l0 130
133 0 c120 0 138 2 177 23 119 63 117 240 -3 304 -24 13 -65 18 -169 21 l-138
4 0 128 c0 142 -7 170 -53 218 -52 54 -125 66 -195 31z"/>
<path d="M2460 1489 c-63 -25 -100 -85 -100 -159 0 -62 18 -100 67 -137 l36
-28 488 0 c479 0 488 0 516 21 51 38 73 81 73 144 0 63 -22 106 -73 144 -28
21 -39 21 -505 23 -303 1 -486 -2 -502 -8z"/>
<path d="M2454 1081 c-23 -10 -51 -33 -64 -51 -28 -40 -38 -126 -20 -170 17
-41 71 -87 117 -99 51 -15 875 -15 926 0 46 12 100 58 117 99 18 44 8 130 -20
170 -13 18 -41 41 -64 51 -38 17 -74 19 -496 19 -422 0 -458 -2 -496 -19z"/>
</g>
</svg>
