<?xml version="1.0" encoding="utf-8"?>
<!-- Generator: Adobe Illustrator 24.1.2, SVG Export Plug-In . SVG Version: 6.00 Build 0)  -->
<svg version="1.1" id="Слой_3" xmlns="http://www.w3.org/2000/svg" xmlns:xlink="http://www.w3.org/1999/xlink" x="0px" y="0px"
	 viewBox="0 0 24.7 24.9" style="enable-background:new 0 0 24.7 24.9;" xml:space="preserve">
<style type="text/css">
	.st0{fill-rule:evenodd;clip-rule:evenodd;fill:#CDADFC;}
</style>
<path class="st0" d="M22.7,12.4c1.9-2.9,3.1-6.8,0.5-9.1c-1.8-1.5-4.5-1.4-6.8-0.9c-1.1-1.6-2.5-2.4-4-2.4c-1.5,0-2.9,0.9-4,2.4
	c-2.3-0.5-5-0.6-6.8,0.9c-2.7,2.2-1.4,6.2,0.5,9.1c-1.9,2.9-3.1,6.9-0.5,9.1c1.8,1.5,4.5,1.4,6.8,0.9c1.1,1.5,2.5,2.4,4,2.4
	c1.5,0,2.9-0.9,4-2.4c4.3,1,8.3-0.3,8.3-4.4C24.7,16.3,24,14.4,22.7,12.4z M22.5,4.1c2.1,1.8,1,5.1-0.5,7.4C21.2,10.3,20,9,18.6,7.8
	c-0.4-1.8-0.9-3.3-1.6-4.5C18.8,3,21.1,2.9,22.5,4.1z M18.8,9.5c1,0.9,1.9,2,2.6,3c-0.7,1-1.6,2-2.6,3c0.2-0.9,0.2-1.9,0.2-3
	C19,11.4,19,10.4,18.8,9.5z M18,12.4c0,1.4-0.2,2.8-0.4,4c-0.1,0.1-0.1,0.1-0.2,0.1c-1.6,1.3-3.4,2.5-5.1,3.4
	c-1.8-0.9-3.5-2-5.1-3.4c-0.1-0.1-0.1-0.1-0.2-0.1c-0.2-1.2-0.4-2.6-0.4-4c0-1.4,0.2-2.8,0.4-4c1.6-1.4,3.4-2.6,5.3-3.5
	C14.2,5.8,16,7,17.7,8.4C17.9,9.6,18,11,18,12.4z M15.9,3.6c0.5,0.9,1,2,1.3,3.2C16,5.9,14.8,5,13.5,4.4C14.4,4,15.1,3.8,15.9,3.6z
	 M12.3,1c1,0,2.1,0.6,2.9,1.7c-0.9,0.3-1.9,0.7-2.9,1.1c-1-0.5-2-0.8-2.9-1.1C10.3,1.7,11.3,1,12.3,1z M8.8,3.6
	c0.8,0.2,1.5,0.5,2.3,0.8C9.9,5,8.7,5.8,7.5,6.7C7.8,5.5,8.3,4.5,8.8,3.6z M2.2,4.1C3.6,2.9,5.9,3,7.8,3.3C7,4.6,6.5,6.1,6.1,7.8
	C4.8,9,3.6,10.3,2.7,11.5C1.2,9.2,0.1,5.9,2.2,4.1z M5.9,15.4c-1-0.9-1.9-2-2.6-3c0.7-1,1.6-2,2.6-3c-0.2,0.9-0.2,1.9-0.2,3
	C5.7,13.5,5.7,14.5,5.9,15.4z M2.2,20.8c-2.1-1.8-1-5.1,0.5-7.4c0.9,1.2,2.1,2.5,3.4,3.7c0.4,1.8,0.9,3.3,1.6,4.5
	C5.9,21.9,3.6,22,2.2,20.8z M8.8,21.3c-0.5-0.9-1-2-1.3-3.2c1.2,0.9,2.4,1.7,3.7,2.4C10.3,20.8,9.6,21.1,8.8,21.3z M12.3,23.9
	c-1,0-2.1-0.6-2.9-1.7c0.9-0.3,1.9-0.7,2.9-1.1c1,0.5,2,0.8,2.9,1.1C14.4,23.2,13.4,23.9,12.3,23.9z M15.9,21.3
	c-0.8-0.2-1.5-0.5-2.3-0.8c1.2-0.7,2.5-1.5,3.7-2.4C16.9,19.3,16.4,20.4,15.9,21.3z M16.9,21.6c0.7-1.2,1.3-2.8,1.6-4.5
	c1.3-1.2,2.5-2.4,3.4-3.7c1.1,1.7,1.6,3.3,1.6,4.7C23.7,21.5,20.3,22.2,16.9,21.6z M9.2,12.4l-1.2,1.3l1.8,1.8
	c0.8,0.8,2.1,0.8,2.8,0l4.5-6.8l-5.9,5.8L9.2,12.4z"/>
</svg>
