<?xml version="1.0" standalone="no"?>
<!DOCTYPE svg PUBLIC "-//W3C//DTD SVG 20010904//EN"
 "http://www.w3.org/TR/2001/REC-SVG-20010904/DTD/svg10.dtd">
<svg version="1.0" xmlns="http://www.w3.org/2000/svg"
 width="134.000000pt" height="134.000000pt" viewBox="0 0 134.000000 134.000000"
 preserveAspectRatio="xMidYMid meet">

<g transform="translate(0.000000,134.000000) scale(0.100000,-0.100000)"
fill="#000000" stroke="none">
<path d="M534 1326 c-303 -69 -513 -314 -531 -621 -7 -120 14 -214 73 -334 75
-152 206 -268 368 -327 241 -87 512 -26 695 157 352 351 211 947 -260 1103
-103 34 -250 43 -345 22z m258 -57 c77 -16 204 -79 270 -132 65 -54 146 -169
178 -254 12 -32 27 -97 33 -144 14 -111 -7 -230 -60 -339 -52 -106 -170 -224
-273 -273 -311 -148 -669 -27 -814 276 -51 106 -66 168 -66 270 1 277 196 526
465 591 73 18 196 20 267 5z"/>
<path d="M347 903 c-4 -3 -7 -111 -7 -239 0 -220 1 -234 19 -244 12 -6 132
-10 320 -10 259 0 302 2 315 16 14 13 16 49 16 234 0 120 -3 225 -6 234 -13
34 -55 15 -193 -85 l-140 -100 -128 93 c-70 51 -129 96 -131 100 -4 10 -56 11
-65 1z m335 -287 c7 4 61 42 120 86 59 43 112 78 117 78 7 0 11 -61 11 -180
l0 -180 -255 0 -255 0 0 185 0 185 125 -91 c77 -56 129 -88 137 -83z"/>
</g>
</svg>
