<?xml version="1.0" encoding="utf-8"?>
<!-- Generator: Adobe Illustrator 24.1.2, SVG Export Plug-In . SVG Version: 6.00 Build 0)  -->
<svg version="1.1" id="Слой_1" xmlns="http://www.w3.org/2000/svg" xmlns:xlink="http://www.w3.org/1999/xlink" x="0px" y="0px"
	 viewBox="0 0 23.1 21.1" style="enable-background:new 0 0 23.1 21.1;" xml:space="preserve">
<style type="text/css">
	.st0{fill-rule:evenodd;clip-rule:evenodd;fill:#444444;}
</style>
<path class="st0" d="M6.9,20.3l-6.1-3.5l4-6.9l-1.4,0.4L0,16.3l0.4,1.4l6.1,3.5l1.4-0.4l1-1.7l-0.9-0.5L6.9,20.3z M22.1,0h-14l-1,1
	v14l1,1h14l1-1V1L22.1,0z M22.1,15h-14V1h14V15z M12.1,11h-2v2h2V11z M20.1,11h-2v2h2V11z M16.1,7h-2v2h2V7z M20.1,3h-2v2h2V3z
	 M12.1,3h-2v2h2V3z"/>
</svg>
