<?xml version="1.0" encoding="utf-8"?>
<!-- Generator: Adobe Illustrator 24.1.2, SVG Export Plug-In . SVG Version: 6.00 Build 0)  -->
<svg version="1.1" id="Слой_1" xmlns="http://www.w3.org/2000/svg" xmlns:xlink="http://www.w3.org/1999/xlink" x="0px" y="0px"
	 viewBox="0 0 22.6 23.3" style="enable-background:new 0 0 22.6 23.3;" xml:space="preserve">
<style type="text/css">
	.st0{fill:#444444;}
</style>
<g>
	<path class="st0" d="M8.3,14.3C8.3,14,8,14.3,8.3,14.3L8.3,14.3z M14.3,14.3C14.6,14.3,14.3,14,14.3,14.3L14.3,14.3z M11.3,0
		L0,11.3L0.7,12l1.6-1.6v12.9h18V10.4l1.6,1.6l0.7-0.7L11.3,0z M13.3,22.3h-4v-7h4V22.3z M14.3,22.3v-8h-6v8h-5V9.4l8-8l3.9,3.9
		l4.1,4.2v12.8H14.3z"/>
</g>
</svg>
