<?xml version="1.0" standalone="no"?>
<!DOCTYPE svg PUBLIC "-//W3C//DTD SVG 20010904//EN"
 "http://www.w3.org/TR/2001/REC-SVG-20010904/DTD/svg10.dtd">
<svg version="1.0" xmlns="http://www.w3.org/2000/svg"
 width="72.000000pt" height="66.000000pt" viewBox="0 0 72.000000 66.000000"
 preserveAspectRatio="xMidYMid meet">
<metadata>
Created by potrace 1.16, written by Peter Selinger 2001-2019
</metadata>
<g transform="translate(0.000000,66.000000) scale(0.100000,-0.100000)"
fill="#000000" stroke="none">
<path d="M173 504 c-84 -85 -153 -158 -153 -162 0 -5 5 -13 11 -19 9 -9 16 -6
30 10 18 21 18 18 19 -155 l0 -178 260 0 260 0 0 178 c1 169 1 176 18 156 19
-22 42 -21 42 2 0 17 -306 324 -323 323 -6 0 -81 -70 -164 -155z m276 -6 l111
-113 0 -177 0 -178 -66 0 -66 0 4 118 3 117 -95 0 -95 0 3 -117 4 -118 -66 0
-66 0 0 179 0 178 108 110 c59 61 108 111 109 112 1 0 52 -50 112 -111z m-59
-373 l0 -95 -50 0 -50 0 0 95 0 95 50 0 50 0 0 -95z"/>
</g>
</svg>
