<?xml version="1.0" encoding="utf-8"?>
<!-- Generator: Adobe Illustrator 24.1.2, SVG Export Plug-In . SVG Version: 6.00 Build 0)  -->
<svg version="1.1" id="Слой_1" xmlns="http://www.w3.org/2000/svg" xmlns:xlink="http://www.w3.org/1999/xlink" x="0px" y="0px"
	 viewBox="0 0 21 21" style="enable-background:new 0 0 21 21;" xml:space="preserve">
<style type="text/css">
	.st0{fill:#444444;}
</style>
<g>
	<path class="st0" d="M8,9l1-1V1L8,0H1L0,1v7l1,1H8z M1,1h7v7H1V1z M13,12l-1,1v7l1,1h7l1-1v-7l-1-1H13z M20,20h-7v-7h7V20z M21,2
		H11v1h10V2z M17,6h-6v1h6V6z M0,15h10v-1H0V15z M4,19h6v-1H4V19z"/>
</g>
</svg>
