<?xml version="1.0" standalone="no"?>
<!DOCTYPE svg PUBLIC "-//W3C//DTD SVG 20010904//EN"
 "http://www.w3.org/TR/2001/REC-SVG-20010904/DTD/svg10.dtd">
<svg version="1.0" xmlns="http://www.w3.org/2000/svg"
 width="72.000000pt" height="66.000000pt" viewBox="0 0 72.000000 66.000000"
 preserveAspectRatio="xMidYMid meet">
<metadata>
Created by potrace 1.16, written by Peter Selinger 2001-2019
</metadata>
<g transform="translate(0.000000,66.000000) scale(0.100000,-0.100000)"
fill="#000000" stroke="none">
<path d="M342 648 c-7 -7 -12 -20 -12 -30 0 -16 -10 -18 -94 -18 -107 0 -119
-7 -114 -67 2 -31 7 -39 26 -41 19 -3 22 1 22 32 l0 36 255 0 255 0 0 -196 c0
-129 -3 -193 -10 -189 -20 12 -51 -6 -48 -28 3 -24 33 -33 74 -23 l24 6 -2
233 -3 232 -92 3 c-71 2 -93 6 -93 17 0 32 -30 45 -104 45 -43 0 -77 -5 -84
-12z"/>
<path d="M210 510 c-11 -11 -20 -24 -20 -30 0 -5 -42 -11 -92 -12 l-93 -3 -3
-233 -2 -232 297 2 298 3 3 219 c2 153 -1 223 -9 232 -8 10 -37 14 -100 14
-49 0 -89 4 -89 8 0 5 -9 18 -20 30 -29 31 -140 32 -170 2z m-121 -280 l-2
-190 -24 0 -23 0 0 190 0 190 25 0 26 0 -2 -190z m360 0 l-2 -190 -152 0 -152
0 -2 190 -2 190 156 0 156 0 -2 -190z m101 0 l0 -190 -25 0 c-19 0 -25 5 -25
23 0 13 6 29 12 35 10 10 10 17 0 32 -8 13 -12 66 -12 155 l0 135 25 0 25 0 0
-190z"/>
</g>
</svg>
