<?xml version="1.0" encoding="utf-8"?>
<!-- Generator: Adobe Illustrator 24.1.2, SVG Export Plug-In . SVG Version: 6.00 Build 0)  -->
<svg version="1.1" id="Слой_1" xmlns="http://www.w3.org/2000/svg" xmlns:xlink="http://www.w3.org/1999/xlink" x="0px" y="0px"
	 viewBox="0 0 23.9 21.8" style="enable-background:new 0 0 23.9 21.8;" xml:space="preserve">
<style type="text/css">
	.st0{fill:#444444;}
</style>
<g>
	<path class="st0" d="M20,15.9c0,0-2-0.5-2-2.5c0-1.8,1-2.4,1.3-2.9c0,0,0.7-0.6,0.2-2.4c0.7-1,0.9-2.7,0.1-4.6
		c-0.5-1.2-1.1-1.8-1.8-2.2c-0.5-0.3-1.1-0.4-1.6-0.4c-0.8,0-1.6,0.2-2.1,0.4c0.1,0.3,0.3,0.6,0.4,0.9v0.1C14.8,2.2,15.4,2,16.1,2
		c0.4,0,0.8,0.1,1.1,0.2C17.6,2.6,18.1,3,18.6,4c0.7,1.5,0.5,2.9,0,3.5c-0.2,0.3-0.3,0.6-0.2,0.9c0.2,0.9,0.1,1.3,0,1.4l-0.1,0.1
		c0,0-0.1,0.1-0.2,0.2c-0.5,0.5-1.3,1.4-1.3,3.3c0,2.2,1.8,3.3,2.8,3.5c1.4,0.5,2.8,1.1,3.1,2.7h-3.4c0.1,0.3,0.2,0.7,0.2,1.1h3.9
		c0.5,0,0.5-0.5,0.5-0.5C23.9,17.2,21.3,16.3,20,15.9z M14.2,16.4c0,0-2.2-0.5-2.2-2.8c0-2,0.9-2.7,1.3-3.2c0,0,0.7-0.6,0.2-2.6
		c0.8-1.1,1-3,0.1-5.1c-0.5-1.3-1-2-1.8-2.4C11.2,0.1,10.6,0,10,0C8.9,0,7.8,0.4,7.4,0.7c-1.2,0.5-2.1,1-2.8,2.9
		C3.9,5.2,4.7,6.9,5.1,7.8c-0.5,2,0.2,2.7,0.2,2.7c0.4,0.5,1.3,1.2,1.3,3.2c0,2.3-2.2,2.8-2.2,2.8C2.9,16.9,0,18,0,21.2
		c0,0,0,0.5,0.5,0.5h17.4c0.5,0,0.5-0.5,0.5-0.5C18.5,18,15.6,16.9,14.2,16.4z M1.1,20.7c0.3-1.9,1.9-2.6,3.5-3.2
		c1.1-0.3,3-1.4,3-3.8c0-2.1-0.9-3.1-1.3-3.6c0-0.1-0.1-0.2-0.1-0.2s0,0,0-0.1s-0.3-0.6,0-1.7c0.1-0.2,0-0.5-0.1-0.7
		C5.8,6.8,5.1,5.2,5.6,4c0.6-1.6,1.2-1.9,2.3-2.4c0,0,0.1,0,0.1,0c0.3-0.2,1.1-0.5,2-0.5c0.5,0,0.9,0.1,1.2,0.3
		C11.6,1.6,12,2,12.5,3.2c0.8,1.8,0.6,3.3,0,4c-0.2,0.3-0.3,0.6-0.2,0.9c0.3,1.1,0.1,1.5,0,1.6l-0.1,0.1c0,0.1-0.1,0.1-0.2,0.2
		c-0.5,0.5-1.3,1.6-1.3,3.6c0,2.4,1.9,3.5,3,3.8c1.6,0.6,3.2,1.3,3.5,3.2H1.1V20.7z"/>
</g>
</svg>
