<?xml version="1.0" encoding="utf-8"?>
<!-- Generator: Adobe Illustrator 24.1.2, SVG Export Plug-In . SVG Version: 6.00 Build 0)  -->
<svg version="1.1" id="Слой_1" xmlns="http://www.w3.org/2000/svg" xmlns:xlink="http://www.w3.org/1999/xlink" x="0px" y="0px"
	 viewBox="0 0 25.5 23.2" style="enable-background:new 0 0 25.5 23.2;" xml:space="preserve">
<style type="text/css">
	.st0{fill:#444444;}
</style>
<g>
	<path class="st0" d="M24.4,2.3h-5.8c0-1.3-1-2.3-2.3-2.3H14c-1.3,0-2.3,1-2.3,2.3H5.8c-0.6,0-1.2,0.5-1.2,1.2v1.7
		c0,0.3,0.3,0.6,0.6,0.6c0.3,0,0.6-0.3,0.6-0.6V3.5h18.6v13.9h-1.7c-0.3,0-0.6,0.3-0.6,0.6c0,0.3,0.3,0.6,0.6,0.6h1.7
		c0.6,0,1.2-0.5,1.2-1.2V3.5C25.5,2.8,25,2.3,24.4,2.3z M12.8,2.3c0-0.6,0.5-1.2,1.2-1.2h2.3c0.6,0,1.2,0.5,1.2,1.2H12.8z M6.4,12.8
		h1.2c0.3,0,0.6-0.3,0.6-0.6s-0.3-0.6-0.6-0.6H6.4c-0.3,0-0.6,0.3-0.6,0.6S6.1,12.8,6.4,12.8z M19.7,7h-5.8c0-1.3-1-2.3-2.3-2.3H9.3
		C8,4.6,7,5.7,7,7H1.2C0.5,7,0,7.5,0,8.1V22c0,0.6,0.5,1.2,1.2,1.2h18.6c0.6,0,1.2-0.5,1.2-1.2V8.1C20.9,7.5,20.4,7,19.7,7z
		 M9.3,5.8h2.3c0.6,0,1.2,0.5,1.2,1.2H8.1C8.1,6.3,8.6,5.8,9.3,5.8z M3.5,18.6c-0.3,0-0.6,0.3-0.6,0.6c0,0.3,0.3,0.6,0.6,0.6V22H1.2
		V8.1h2.3V18.6z M16.2,18.6c-0.3,0-0.6,0.3-0.6,0.6c0,0.3,0.3,0.6,0.6,0.6V22H4.6v-2.3c0.3,0,0.6-0.3,0.6-0.6c0-0.3-0.3-0.6-0.6-0.6
		V8.1h11.6V18.6z M19.7,22h-2.3v-2.3c0.3,0,0.6-0.3,0.6-0.6c0-0.3-0.3-0.6-0.6-0.6V8.1h2.3V22z M6.4,10.4h3.5c0.3,0,0.6-0.3,0.6-0.6
		s-0.3-0.6-0.6-0.6H6.4c-0.3,0-0.6,0.3-0.6,0.6C5.8,10.2,6.1,10.4,6.4,10.4z"/>
</g>
</svg>
