<?xml version="1.0" encoding="utf-8"?>
<!-- Generator: Adobe Illustrator 24.1.2, SVG Export Plug-In . SVG Version: 6.00 Build 0)  -->
<svg version="1.1" id="Слой_1" xmlns="http://www.w3.org/2000/svg" xmlns:xlink="http://www.w3.org/1999/xlink" x="0px" y="0px"
	 viewBox="0 0 23 23" style="enable-background:new 0 0 23 23;" xml:space="preserve">
<style type="text/css">
	.st0{fill:#444444;}
</style>
<g>
	<path class="st0" d="M11.5,0C5.1,0,0,5.1,0,11.5S5.1,23,11.5,23S23,17.9,23,11.5S17.9,0,11.5,0z M11.5,22C5.7,22,1,17.3,1,11.5
		S5.7,1,11.5,1S22,5.7,22,11.5S17.3,22,11.5,22z M14.6,11.9c-0.3-0.3-0.7-0.5-1.1-0.7c-0.4-0.2-0.8-0.3-1.2-0.4l-1.4-0.4
		c-0.3-0.1-0.6-0.2-0.9-0.3C9.7,9.9,9.4,9.8,9.1,9.6C8.9,9.4,8.7,9.2,8.6,8.9C8.4,8.7,8.3,8.4,8.3,8c0-0.5,0.1-0.9,0.4-1.2
		C9,6.4,9.3,6.2,9.8,5.9c0.5-0.2,1-0.3,1.6-0.3c0.9,0,1.6,0.2,2.1,0.6c0.6,0.4,0.9,1,1,1.7h1.1c0-0.7-0.2-1.2-0.6-1.8
		c-0.4-0.5-0.9-0.9-1.5-1.2c-0.6-0.3-1.3-0.4-2.1-0.4S9.9,4.6,9.3,4.9C8.6,5.3,8.1,5.7,7.7,6.3C7.4,6.8,7.2,7.4,7.2,8.1
		c0,0.8,0.3,1.5,0.8,2c0.6,0.5,1.3,0.9,2.4,1.3l1.5,0.5c0.5,0.2,1,0.3,1.4,0.5s0.7,0.4,0.9,0.7s0.3,0.7,0.3,1.1c0,0.5-0.1,1-0.4,1.4
		c-0.3,0.4-0.7,0.7-1.2,0.9c-0.5,0.2-1.1,0.3-1.7,0.3c-0.6,0-1.1-0.1-1.6-0.3c-0.5-0.2-0.9-0.4-1.1-0.8C8.2,15.3,8,14.9,8,14.4H6.9
		c0,0.7,0.3,1.3,0.6,1.8c0.4,0.5,0.9,0.9,1.5,1.2c0.6,0.3,1.4,0.4,2.3,0.4c0.9,0,1.7-0.2,2.4-0.5c0.7-0.3,1.2-0.8,1.5-1.3
		c0.4-0.5,0.5-1.2,0.5-1.9c0-0.5-0.1-1-0.3-1.4C15.2,12.5,15,12.1,14.6,11.9z"/>
</g>
</svg>
