<?xml version="1.0" standalone="no"?>
<!DOCTYPE svg PUBLIC "-//W3C//DTD SVG 20010904//EN"
 "http://www.w3.org/TR/2001/REC-SVG-20010904/DTD/svg10.dtd">
<svg version="1.0" xmlns="http://www.w3.org/2000/svg"
 width="134.000000pt" height="134.000000pt" viewBox="0 0 134.000000 134.000000"
 preserveAspectRatio="xMidYMid meet">

<g transform="translate(0.000000,134.000000) scale(0.100000,-0.100000)"
fill="#000000" stroke="none">
<path d="M534 1326 c-303 -69 -513 -314 -531 -621 -7 -120 14 -214 73 -334 75
-152 206 -268 368 -327 241 -87 512 -26 695 157 350 349 212 940 -257 1102
-104 36 -250 45 -348 23z m258 -57 c77 -16 204 -79 270 -132 65 -54 146 -169
178 -254 12 -32 27 -97 33 -144 14 -111 -7 -230 -60 -339 -52 -106 -170 -224
-273 -273 -311 -148 -669 -27 -814 276 -51 106 -66 168 -66 270 1 277 196 526
465 591 73 18 196 20 267 5z"/>
<path d="M607 808 c-225 -91 -297 -124 -295 -136 3 -16 11 -19 109 -47 l56
-15 28 -96 c16 -53 35 -98 42 -101 9 -3 34 13 61 40 l47 46 79 -60 c83 -61 97
-67 113 -46 11 14 103 460 103 499 0 23 -18 40 -38 37 -4 0 -141 -55 -305
-121z m148 -61 c-192 -174 -205 -189 -205 -236 0 -23 -4 -40 -8 -37 -11 6 -45
131 -40 145 4 15 310 210 328 210 8 0 -25 -37 -75 -82z"/>
</g>
</svg>
