<?xml version="1.0" standalone="no"?>
<!DOCTYPE svg PUBLIC "-//W3C//DTD SVG 20010904//EN"
 "http://www.w3.org/TR/2001/REC-SVG-20010904/DTD/svg10.dtd">
<svg version="1.0" xmlns="http://www.w3.org/2000/svg"
 width="2133.000000pt" height="2133.000000pt" viewBox="0 0 2133.000000 2133.000000"
 preserveAspectRatio="xMidYMid meet">

<g transform="translate(0.000000,2133.000000) scale(0.100000,-0.100000)"
fill="#000000" stroke="none">
<path d="M10275 21323 c-49 -1 -196 -10 -325 -18 -1191 -78 -2362 -358 -3460
-825 -205 -87 -562 -254 -675 -315 -33 -18 -109 -58 -170 -90 -525 -277 -1117
-665 -1600 -1050 -2138 -1702 -3534 -4114 -3929 -6790 -81 -545 -110 -957
-110 -1560 -1 -558 17 -849 80 -1355 322 -2581 1594 -4966 3566 -6688 1600
-1397 3576 -2285 5668 -2546 496 -62 800 -80 1345 -80 545 0 849 18 1345 80
1947 243 3793 1027 5330 2263 1600 1286 2798 3006 3444 4942 463 1390 634
2878 500 4354 -290 3208 -2031 6118 -4729 7910 -1861 1235 -4005 1839 -6280
1768z m3165 -5918 c518 -79 976 -306 1355 -670 l80 -77 60 12 c417 81 961 284
1368 511 60 33 111 59 113 56 9 -9 -68 -203 -133 -332 -188 -376 -473 -701
-826 -939 -54 -36 -92 -66 -85 -66 7 0 70 9 139 20 369 57 724 154 1081 295
184 73 180 85 39 -109 -255 -352 -614 -721 -970 -996 l-121 -94 0 -275 c0
-502 -44 -940 -140 -1406 -461 -2226 -1913 -4097 -3870 -4983 -1051 -476
-2241 -684 -3440 -601 -1093 75 -2143 406 -3093 976 -87 52 -156 97 -154 100
3 2 61 -2 129 -9 185 -19 733 -16 928 5 521 58 972 173 1435 367 324 136 706
354 985 562 l125 93 -115 7 c-859 58 -1638 575 -2023 1343 -59 120 -123 275
-133 322 l-6 30 79 -13 c145 -26 380 -36 540 -24 133 10 360 46 438 69 36 10
34 11 -102 46 -392 98 -800 331 -1092 624 -359 359 -595 806 -686 1296 -21
114 -45 349 -45 442 l0 32 133 -64 c278 -134 671 -235 911 -235 l59 0 -59 41
c-221 154 -453 396 -614 640 -487 737 -540 1661 -141 2458 52 103 65 121 76
110 7 -8 54 -63 105 -123 406 -477 902 -915 1440 -1271 903 -598 1898 -967
2980 -1106 127 -16 392 -39 454 -39 50 0 57 2 52 17 -4 9 -16 73 -29 142 -30
173 -32 596 -4 766 87 516 306 955 661 1323 409 423 926 676 1516 741 121 14
475 5 600 -14z"/>
</g>
</svg>
